<svg xmlns="http://www.w3.org/2000/svg" width="248" height="40" fill="none" viewBox="0 0 248 40"><path fill="#000" d="M70.736 11.6H75.6l-8.352 13.536V34h-4.48v-8.864L54.384 11.6h5.088l5.536 9.888 5.728-9.888Zm6.502 3.264v-3.776h3.808v3.776h-3.808Zm6.048 0v-3.776h3.84v3.776h-3.84Zm-7.424 17.184c-1.536-1.579-2.304-3.723-2.304-6.432 0-2.71.768-4.843 2.304-6.4 1.558-1.579 3.659-2.368 6.304-2.368 2.646 0 4.736.79 6.272 2.368 1.558 1.557 2.336 3.69 2.336 6.4 0 2.71-.778 4.853-2.336 6.432-1.536 1.557-3.626 2.336-6.272 2.336-2.645 0-4.746-.779-6.304-2.336Zm3.136-10.368c-.79 1.003-1.184 2.315-1.184 3.936s.395 2.933 1.184 3.936c.79 1.003 1.846 1.504 3.168 1.504 1.344 0 2.41-.501 3.2-1.504.79-1.003 1.184-2.315 1.184-3.936s-.394-2.933-1.184-3.936c-.79-1.003-1.856-1.504-3.2-1.504-1.322 0-2.378.501-3.168 1.504ZM113.473 34h-5.344l-5.952-8.672h-3.232V34h-4.48V11.6h9.984c1.472 0 2.794.224 3.968.672 1.173.427 2.154 1.184 2.944 2.272.789 1.088 1.184 2.432 1.184 4.032 0 1.941-.512 3.445-1.536 4.512-1.024 1.067-2.4 1.75-4.128 2.048L113.473 34ZM98.945 15.184v6.784h4.96c1.301 0 2.314-.288 3.04-.864.746-.576 1.12-1.419 1.12-2.528 0-1.11-.374-1.952-1.12-2.528-.726-.576-1.739-.864-3.04-.864h-4.96Zm15.52 10.432c0-2.901.778-5.088 2.336-6.56 1.578-1.472 3.68-2.208 6.304-2.208 5.461 0 8.192 3.179 8.192 9.536v.48h-12.512c.149 1.493.618 2.613 1.408 3.36.81.747 1.856 1.12 3.136 1.12 1.749 0 2.965-.725 3.648-2.176l4.096.256c-.427 1.579-1.312 2.805-2.656 3.68-1.344.853-3.04 1.28-5.088 1.28-2.731 0-4.896-.725-6.496-2.176-1.579-1.472-2.368-3.67-2.368-6.592Zm4.32-1.472h8.288c-.086-1.344-.48-2.39-1.184-3.136-.683-.747-1.611-1.12-2.784-1.12-1.174 0-2.144.363-2.912 1.088-.747.704-1.216 1.76-1.408 3.168Zm14.837 5.28c0-3.093 2.347-4.864 7.04-5.312l4.384-.448v-.832c0-.896-.266-1.61-.8-2.144-.533-.533-1.344-.8-2.432-.8-.96 0-1.749.213-2.368.64-.597.427-.928 1.056-.992 1.888h-3.904c.064-1.941.768-3.35 2.112-4.224 1.344-.896 3.062-1.344 5.152-1.344 2.411 0 4.267.576 5.568 1.728 1.302 1.152 1.952 2.87 1.952 5.152V34h-4v-3.04c-1.173 2.283-3.21 3.424-6.112 3.424-1.813 0-3.2-.459-4.16-1.376-.96-.917-1.44-2.112-1.44-3.584Zm4.256-.224c0 .661.224 1.195.672 1.6.47.405 1.152.608 2.048.608 1.323 0 2.39-.416 3.2-1.248.832-.853 1.248-1.899 1.248-3.136v-.736l-3.84.384c-2.218.213-3.328 1.056-3.328 2.528Zm14.43-3.584c0-2.795.747-4.95 2.24-6.464 1.494-1.536 3.531-2.304 6.112-2.304 2.134 0 3.915.544 5.344 1.632 1.451 1.088 2.294 2.613 2.528 4.576l-4.096.352c-.213-1.045-.661-1.845-1.344-2.4-.661-.555-1.472-.832-2.432-.832-1.258 0-2.261.48-3.008 1.44-.725.96-1.088 2.293-1.088 4 0 1.707.374 3.04 1.12 4 .747.96 1.771 1.44 3.072 1.44 1.046 0 1.899-.288 2.56-.864.662-.597 1.099-1.43 1.312-2.496l4.128.256c-.234 2.048-1.077 3.637-2.528 4.768-1.45 1.11-3.274 1.664-5.472 1.664-2.624 0-4.693-.757-6.208-2.272-1.493-1.515-2.24-3.68-2.24-6.496Zm29.48-5.184h-3.968V28.4c0 .896.128 1.515.384 1.856.277.32.821.48 1.632.48.597 0 1.248-.053 1.952-.16v3.456a19 19 0 0 1-2.784.224c-1.899 0-3.285-.395-4.16-1.184-.875-.79-1.312-2.133-1.312-4.032v-8.608h-3.488v-3.136h2.528c.427 0 .725-.085.896-.256.192-.17.288-.448.288-.832v-2.816h4.064v3.84h3.968v3.2Zm3.007-5.568v-4.128h4.512v4.128h-4.512ZM184.923 34V17.232h4.256V34h-4.256Zm9.752-1.952c-1.536-1.579-2.304-3.723-2.304-6.432 0-2.71.768-4.843 2.304-6.4 1.557-1.579 3.658-2.368 6.304-2.368 2.645 0 4.736.79 6.272 2.368 1.557 1.557 2.336 3.69 2.336 6.4 0 2.71-.779 4.853-2.336 6.432-1.536 1.557-3.627 2.336-6.272 2.336-2.646 0-4.747-.779-6.304-2.336Zm3.136-10.368c-.79 1.003-1.184 2.315-1.184 3.936s.394 2.933 1.184 3.936c.789 1.003 1.845 1.504 3.168 1.504 1.344 0 2.41-.501 3.2-1.504.789-1.003 1.184-2.315 1.184-3.936s-.395-2.933-1.184-3.936c-.79-1.003-1.856-1.504-3.2-1.504-1.323 0-2.379.501-3.168 1.504ZM212.733 34V17.232h4v2.944c1.11-2.219 3.062-3.328 5.856-3.328 1.92 0 3.36.555 4.32 1.664.982 1.088 1.472 2.688 1.472 4.8V34h-4.256v-9.376c0-1.408-.256-2.464-.768-3.168-.49-.725-1.301-1.088-2.432-1.088-1.258 0-2.229.437-2.912 1.312-.661.853-.992 2.016-.992 3.488V34h-4.288Zm18.126-5.088 3.936-.128c.213 1.707 1.514 2.56 3.904 2.56 2.24 0 3.36-.587 3.36-1.76 0-.448-.214-.821-.64-1.12-.427-.299-1.152-.597-2.176-.896l-3.68-.992c-2.774-.747-4.16-2.368-4.16-4.864 0-1.664.64-2.89 1.92-3.68 1.28-.79 2.912-1.184 4.896-1.184 2.069 0 3.808.437 5.216 1.312 1.408.853 2.208 2.176 2.4 3.968l-3.904.192c-.128-.79-.523-1.387-1.184-1.792-.662-.427-1.504-.64-2.528-.64-.832-.021-1.472.117-1.92.416-.448.299-.672.725-.672 1.28 0 .853.778 1.493 2.336 1.92l3.712.992c3.05.79 4.576 2.41 4.576 4.864 0 1.664-.704 2.923-2.112 3.776-1.387.832-3.243 1.248-5.568 1.248-4.843 0-7.414-1.824-7.712-5.472Z"/><rect width="27.657" height="18.462" fill="#324BF4" rx="4" transform="matrix(.86555 -.50082 0 1 3 16.846)"/><g filter="url(#a)"><rect width="27.657" height="18.462" fill="#99B7FF" rx="4" transform="matrix(.86566 -.50063 0 1 8.53 18.692)"/></g><g filter="url(#b)"><rect width="27.657" height="18.462" fill="#DDE6FF" rx="4" transform="matrix(.86566 -.50063 0 1 14.058 20.538)"/></g><defs><filter id="a" width="31.942" height="37.251" x=".529" y=".375" color-interpolation-filters="sRGB" filterUnits="userSpaceOnUse"><feFlood flood-opacity="0" result="BackgroundImageFix"/><feColorMatrix in="SourceAlpha" result="hardAlpha" values="0 0 0 0 0 0 0 0 0 0 0 0 0 0 0 0 0 0 127 0"/><feMorphology in="SourceAlpha" radius="2" result="effect1_dropShadow_3858_6573"/><feOffset dx="-4" dy="-2"/><feGaussianBlur stdDeviation="3"/><feComposite in2="hardAlpha" operator="out"/><feColorMatrix values="0 0 0 0 0 0 0 0 0 0 0 0 0 0 0 0 0 0 0.15 0"/><feBlend in2="BackgroundImageFix" result="effect1_dropShadow_3858_6573"/><feBlend in="SourceGraphic" in2="effect1_dropShadow_3858_6573" result="shape"/></filter><filter id="b" width="31.942" height="37.251" x="6.058" y="2.221" color-interpolation-filters="sRGB" filterUnits="userSpaceOnUse"><feFlood flood-opacity="0" result="BackgroundImageFix"/><feColorMatrix in="SourceAlpha" result="hardAlpha" values="0 0 0 0 0 0 0 0 0 0 0 0 0 0 0 0 0 0 127 0"/><feMorphology in="SourceAlpha" radius="2" result="effect1_dropShadow_3858_6573"/><feOffset dx="-4" dy="-2"/><feGaussianBlur stdDeviation="3"/><feComposite in2="hardAlpha" operator="out"/><feColorMatrix values="0 0 0 0 0 0 0 0 0 0 0 0 0 0 0 0 0 0 0.15 0"/><feBlend in2="BackgroundImageFix" result="effect1_dropShadow_3858_6573"/><feBlend in="SourceGraphic" in2="effect1_dropShadow_3858_6573" result="shape"/></filter></defs></svg>